name D:\PhD\Datasets\SharingData_IBEC_VALDUCE\MO1_Healthy_0001.mot
datacolumns 46
datarows 9
range 5.01000000 5.09000000
endheader
                time	         pelvis_tilt	     pelvis_rotation	           pelvis_tx	           pelvis_ty	           pelvis_tz	       hip_flexion_r	     hip_adduction_r	      hip_rotation_r	        knee_angle_r	       ankle_angle_r	    subtalar_angle_r	         mtp_angle_r	       hip_flexion_l	     hip_adduction_l	      hip_rotation_l	        knee_angle_l	       ankle_angle_l	    subtalar_angle_l	         mtp_angle_l	    lumbar_extension	      lumbar_bending	     lumbar_rotation	          arm_flex_r	           arm_add_r	           arm_rot_r	        elbow_flex_r	           pro_sup_r	        wrist_flex_r	         wrist_dev_r	          arm_flex_l	           arm_add_l	           arm_rot_l	        elbow_flex_l	           pro_sup_l	        wrist_flex_l	         wrist_dev_l	          end_eff_tx	          end_eff_ty	          end_eff_tz	             goal_tx	             goal_ty	             goal_tz	            elbow_tx	            elbow_ty	            elbow_tz	
          5.01000000	          0.00000000	          0.00000000	        312.08223449	        500.04548500	        355.29433088	          0.00000000	          0.00000000	          0.00000000	          0.00000000	          0.00000000	          0.00000000	          0.00000000	          0.00000000	          0.00000000	          0.00000000	          0.00000000	          0.00000000	          0.00000000	          0.00000000	         -5.35508299	         -0.13653493	         -4.22068024	         73.94912720	        -35.12783432	         30.71790886	         65.04879761	         79.32415009	          0.00000000	          0.00000000	          0.00000000	          0.00000000	          0.00000000	          0.00000000	          0.00000000	          0.00000000	          0.00000000	        758.60694923	        738.95310225	        532.88406647	        773.87227085	        745.85049603	        536.32276114	        443.51129369	        531.85755652	        715.51587022	
          5.02000000	          0.00000000	          0.00000000	        311.66982722	        500.29405054	        357.10800679	          0.00000000	          0.00000000	          0.00000000	          0.00000000	          0.00000000	          0.00000000	          0.00000000	          0.00000000	          0.00000000	          0.00000000	          0.00000000	          0.00000000	          0.00000000	          0.00000000	         -5.25060177	          0.11522333	         -4.57598972	         74.14077759	        -35.61715317	         30.89409256	         64.96108246	         79.36235809	          0.00000000	          0.00000000	          0.00000000	          0.00000000	          0.00000000	          0.00000000	          0.00000000	          0.00000000	          0.00000000	        756.98184849	        739.82015852	        542.13796270	        772.16475470	        746.78096681	        545.61133750	        439.59673494	        532.36542900	        720.39896407	
          5.03000000	          0.00000000	          0.00000000	        311.69053707	        500.78520066	        358.68579174	          0.00000000	          0.00000000	          0.00000000	          0.00000000	          0.00000000	          0.00000000	          0.00000000	          0.00000000	          0.00000000	          0.00000000	          0.00000000	          0.00000000	          0.00000000	          0.00000000	         -4.67617273	         -0.17372045	         -4.22832298	         73.21714783	        -36.58924103	         30.17758179	         64.91138458	         79.25188446	          0.00000000	          0.00000000	          0.00000000	          0.00000000	          0.00000000	          0.00000000	          0.00000000	          0.00000000	          0.00000000	        755.31014523	        740.60618009	        551.23873598	        770.38816027	        747.50897089	        554.88295729	        435.74245384	        532.93847579	        725.25074148	
          5.04000000	          0.00000000	          0.00000000	        311.41955837	        501.06993073	        360.45710085	          0.00000000	          0.00000000	          0.00000000	          0.00000000	          0.00000000	          0.00000000	          0.00000000	          0.00000000	          0.00000000	          0.00000000	          0.00000000	          0.00000000	          0.00000000	          0.00000000	         -4.61610317	          0.04256314	         -4.43161106	         73.30558777	        -37.11809158	         30.24358368	         64.86837769	         79.09872437	          0.00000000	          0.00000000	          0.00000000	          0.00000000	          0.00000000	          0.00000000	          0.00000000	          0.00000000	          0.00000000	        753.56193520	        741.41718837	        560.33635529	        768.62578470	        748.43888329	        564.23895437	        431.78269687	        533.56821391	        730.07284156	
          5.05000000	          0.00000000	          0.00000000	        311.13488993	        501.30479131	        362.07931830	          0.00000000	          0.00000000	          0.00000000	          0.00000000	          0.00000000	          0.00000000	          0.00000000	          0.00000000	          0.00000000	          0.00000000	          0.00000000	          0.00000000	          0.00000000	          0.00000000	         -4.15984106	          0.20579366	         -4.63053799	         73.06830597	        -37.73018646	         30.31018829	         64.77661133	         79.06426239	          0.00000000	          0.00000000	          0.00000000	          0.00000000	          0.00000000	          0.00000000	          0.00000000	          0.00000000	          0.00000000	        751.79409862	        742.17723432	        569.34657959	        766.82461363	        749.19467277	        573.48002799	        427.89398370	        534.28308840	        734.97335910	
          5.06000000	          0.00000000	          0.00000000	        310.84680774	        501.33499348	        363.92505344	          0.00000000	          0.00000000	          0.00000000	          0.00000000	          0.00000000	          0.00000000	          0.00000000	          0.00000000	          0.00000000	          0.00000000	          0.00000000	          0.00000000	          0.00000000	          0.00000000	         -4.34030151	          0.55952990	         -4.78531981	         73.47309113	        -38.44394684	         30.55017662	         64.83697510	         79.01083374	          0.00000000	          0.00000000	          0.00000000	          0.00000000	          0.00000000	          0.00000000	          0.00000000	          0.00000000	          0.00000000	        749.96371189	        742.97262582	        578.18054401	        765.02867294	        749.91315572	        582.63784172	        424.05072523	        535.03779882	        739.57528259	
          5.07000000	          0.00000000	          0.00000000	        310.41101739	        501.33191276	        365.71076447	          0.00000000	          0.00000000	          0.00000000	          0.00000000	          0.00000000	          0.00000000	          0.00000000	          0.00000000	          0.00000000	          0.00000000	          0.00000000	          0.00000000	          0.00000000	          0.00000000	         -4.22903728	          0.64859504	         -4.99277735	         73.59313202	        -39.01358414	         30.58635330	         64.67853546	         79.08140564	          0.00000000	          0.00000000	          0.00000000	          0.00000000	          0.00000000	          0.00000000	          0.00000000	          0.00000000	          0.00000000	        748.23917328	        743.70326291	        587.12290522	        763.25421203	        750.76066346	        591.69188655	        420.20230675	        535.75633442	        744.30484761	
          5.08000000	          0.00000000	          0.00000000	        310.28813351	        501.72899732	        367.27919118	          0.00000000	          0.00000000	          0.00000000	          0.00000000	          0.00000000	          0.00000000	          0.00000000	          0.00000000	          0.00000000	          0.00000000	          0.00000000	          0.00000000	          0.00000000	          0.00000000	         -4.14898443	          1.01163673	         -5.39270782	         73.95290375	        -39.49351501	         31.06568527	         64.67623138	         78.67066193	          0.00000000	          0.00000000	          0.00000000	          0.00000000	          0.00000000	          0.00000000	          0.00000000	          0.00000000	          0.00000000	        746.40389744	        744.54133759	        595.91196877	        761.40889558	        751.46318057	        600.78481716	        416.37887418	        536.63849197	        748.91091892	
          5.09000000	          0.00000000	          0.00000000	        310.38494012	        502.09076878	        369.00818804	          0.00000000	          0.00000000	          0.00000000	          0.00000000	          0.00000000	          0.00000000	          0.00000000	          0.00000000	          0.00000000	          0.00000000	          0.00000000	          0.00000000	          0.00000000	          0.00000000	         -4.04246902	          0.78066409	         -5.17041254	         73.62287140	        -40.29055786	         30.57496262	         64.53065491	         78.66906738	          0.00000000	          0.00000000	          0.00000000	          0.00000000	          0.00000000	          0.00000000	          0.00000000	          0.00000000	          0.00000000	        744.61131803	        745.35303641	        604.77944051	        759.53933326	        752.15200833	        609.68597166	        412.56518682	        537.38165320	        753.48732503	
